<svg width="478" height="207" viewBox="0 0 478 207" fill="none" xmlns="http://www.w3.org/2000/svg">
<path d="M68.9391 146.134C64.1318 146.134 61.7308 143.733 61.7308 138.926V109.238C60.0485 116.197 57.5277 122.624 54.1683 128.509C50.8037 134.384 46.6683 139.092 41.7516 142.634C36.835 146.16 31.2516 147.926 25.0016 147.926C18.4027 147.926 12.6735 145.895 7.81413 141.822C2.94954 137.738 0.522461 131.915 0.522461 124.342C0.522461 118.108 2.40788 113.04 6.18913 109.134C9.98079 105.233 14.9912 101.962 21.2308 99.3216C27.4652 96.6862 34.3037 94.3424 41.7516 92.3008L61.7308 86.5508C61.6162 77.6654 59.3662 71.332 54.9808 67.5508C50.6058 63.7747 45.0537 61.8841 38.335 61.8841C33.2933 61.8841 28.3037 63.0612 23.3766 65.4049C18.46 67.7383 13.7204 71.6654 9.16829 77.1758L7.37663 75.5716C12.4183 69.3216 18.3558 64.3112 25.1891 60.5299C32.0329 56.7539 39.5329 54.8633 47.6891 54.8633C58.6162 54.8633 66.6891 57.7174 71.8975 63.4258C77.1162 69.1237 79.7308 77.4883 79.7308 88.5299V123.28C79.7308 129.754 80.1787 134.525 81.085 137.592C81.986 140.65 83.9391 142.655 86.9391 143.613V146.134H68.9391ZM17.2725 118.051C17.2725 123.926 19.0433 128.191 22.585 130.842C26.1266 133.483 29.9287 134.801 34.0016 134.801C38.4443 134.801 42.3766 133.457 45.7933 130.759C49.2204 128.051 52.1058 124.566 54.4391 120.301C56.7829 116.04 58.585 111.566 59.835 106.884C61.0954 102.207 61.7308 97.8216 61.7308 93.7383V89.0716L42.4808 94.6549C40.3141 95.2539 37.8193 96.1237 35.0016 97.2591C32.1787 98.3997 29.4183 99.8737 26.71 101.676C24.012 103.467 21.762 105.717 19.96 108.426C18.1683 111.124 17.2725 114.332 17.2725 118.051Z" fill="black"/>
<path d="M144.539 147.759C140.466 147.759 136.539 147.218 132.748 146.134C128.966 145.051 125.519 143.613 122.394 141.822V171.884C122.394 178.353 122.841 183.119 123.748 186.176C124.649 189.244 126.602 191.259 129.602 192.218V194.738H96.8311V192.218C99.8311 191.259 101.779 189.244 102.685 186.176C103.586 183.119 104.039 178.353 104.039 171.884V81.8634C104.039 76.5874 103.404 73.1082 102.144 71.4259C100.894 69.7489 99.1227 68.4259 96.8311 67.4676V64.9468L120.602 54.5093L122.394 55.9468V67.6551C127.196 64.2957 132.446 61.3218 138.144 58.7384C143.852 56.1551 149.821 54.8634 156.06 54.8634C163.503 54.8634 169.956 56.7541 175.414 60.5301C180.873 64.3114 185.102 69.4676 188.102 76.0093C191.102 82.5509 192.602 89.9624 192.602 98.2384C192.602 107.363 190.649 115.676 186.748 123.176C182.857 130.676 177.31 136.65 170.102 141.093C162.904 145.541 154.383 147.759 144.539 147.759ZM122.394 116.072C122.394 119.197 123.295 122.416 125.102 125.718C126.904 129.009 129.248 132.067 132.123 134.884C134.998 137.707 138.144 139.988 141.56 141.738C144.987 143.478 148.383 144.343 151.748 144.343C158.232 144.343 163.211 142.78 166.685 139.655C170.17 136.53 172.539 132.483 173.789 127.509C175.05 122.525 175.685 117.332 175.685 111.926C175.685 108.692 175.414 104.916 174.873 100.593C174.331 96.2749 173.399 91.8947 172.081 87.4468C170.758 83.0041 168.873 78.8634 166.414 75.0301C163.956 71.1864 160.862 68.0926 157.144 65.7593C153.42 63.4155 148.857 62.2384 143.456 62.2384C139.498 62.2384 135.774 63.0509 132.289 64.6759C128.815 66.3009 125.519 68.3114 122.394 70.6968V116.072Z" fill="black"/>
<path d="M205.035 146.134V143.613C208.035 142.655 209.983 140.65 210.889 137.593C211.79 134.525 212.243 129.754 212.243 123.28V81.8634C212.243 76.5874 211.608 73.1082 210.348 71.4259C209.082 69.7489 207.311 68.4259 205.035 67.4676V64.9468L228.806 54.5093L230.598 55.9468V77.7176C233.358 71.2489 237.743 65.9676 243.743 61.8843C247.103 59.4832 250.556 57.7124 254.098 56.5718C257.639 55.4364 261.566 54.8634 265.889 54.8634C268.999 54.8634 271.691 55.2905 273.973 56.1343C276.264 56.9676 277.41 58.3426 277.41 60.2593C277.41 61.5822 276.957 63.1707 276.056 65.0301C275.15 66.8947 273.796 68.5197 271.993 69.9051C270.202 71.2801 267.921 71.9676 265.16 71.9676C262.645 71.9676 259.556 71.5197 255.889 70.6134C252.223 69.7124 247.514 68.3634 241.764 66.5718C239.483 68.4884 237.108 71.3114 234.639 75.0301C232.181 78.7541 230.832 82.8947 230.598 87.4468V123.28C230.598 129.754 231.046 134.525 231.952 137.593C232.853 140.65 234.806 142.655 237.806 143.613V146.134H205.035Z" fill="black"/>
<path d="M286.226 146.134V143.613C289.226 142.655 291.174 140.65 292.08 137.592C292.981 134.525 293.434 129.754 293.434 123.28V81.8631C293.434 76.5871 292.799 73.1079 291.539 71.4256C290.273 69.7485 288.502 68.4256 286.226 67.4673V64.9465L309.997 54.509L311.789 55.9465V123.28C311.789 129.754 312.236 134.525 313.143 137.592C314.044 140.65 315.997 142.655 318.997 143.613V146.134H286.226ZM289.289 36.134C289.289 32.6652 290.481 29.7277 292.872 27.3215C295.273 24.9204 298.153 23.7173 301.518 23.7173C305.127 23.7173 308.07 24.9204 310.351 27.3215C312.627 29.7277 313.768 32.6652 313.768 36.134C313.768 39.4985 312.591 42.3787 310.247 44.7798C307.914 47.186 305.002 48.384 301.518 48.384C298.153 48.384 295.273 47.186 292.872 44.7798C290.481 42.3787 289.289 39.4985 289.289 36.134Z" fill="black"/>
<path d="M329.786 146.134V143.613C332.786 142.655 334.734 140.65 335.64 137.592C336.541 134.525 336.994 129.754 336.994 123.28V27.8633C336.994 22.5872 336.359 19.1081 335.098 17.4258C333.833 15.7487 332.062 14.4258 329.786 13.4674V10.9466L353.556 0.488281L355.348 1.94661V123.28C355.348 129.754 355.796 134.525 356.702 137.592C357.603 140.65 359.556 142.655 362.556 143.613V146.134H329.786Z" fill="black"/>
<path d="M145.07 205.559V204.309C146.57 203.824 147.539 202.819 147.987 201.288C148.445 199.762 148.674 197.371 148.674 194.121V173.434C148.674 170.798 148.352 169.059 147.716 168.225C147.091 167.382 146.206 166.715 145.07 166.225V164.975L156.945 159.746L157.841 160.475V168.038C160.31 165.996 163.133 164.137 166.299 162.454C169.477 160.777 172.81 159.934 176.299 159.934C179.477 159.934 182.091 160.579 184.133 161.871C186.174 163.163 187.612 165.246 188.445 168.121C190.904 166.079 193.737 164.204 196.945 162.496C200.164 160.788 203.539 159.934 207.07 159.934C211.221 159.934 214.424 161.09 216.674 163.392C218.924 165.699 220.049 169.496 220.049 174.788V194.121C220.049 197.371 220.268 199.762 220.716 201.288C221.159 202.819 222.133 203.824 223.633 204.309V205.559H207.258V204.309C208.758 203.824 209.727 202.819 210.174 201.288C210.633 199.762 210.862 197.371 210.862 194.121V176.392C210.862 172.324 210.154 169.163 208.737 166.913C207.331 164.663 204.951 163.538 201.591 163.538C199.492 163.538 197.424 164.033 195.383 165.017C193.341 166.007 191.117 167.454 188.716 169.371C189.076 170.996 189.258 172.803 189.258 174.788V194.121C189.258 197.371 189.477 199.762 189.924 201.288C190.383 202.819 191.362 203.824 192.862 204.309V205.559H176.487V204.309C177.987 203.824 178.956 202.819 179.404 201.288C179.846 199.762 180.07 197.371 180.07 194.121V176.392C180.07 172.324 179.362 169.163 177.945 166.913C176.539 164.663 174.159 163.538 170.799 163.538C168.701 163.538 166.633 164.048 164.591 165.059C162.56 166.074 160.31 167.574 157.841 169.559V194.121C157.841 197.371 158.06 199.762 158.508 201.288C158.966 202.819 159.945 203.824 161.445 204.309V205.559H145.07Z" fill="black"/>
<path d="M251.803 206.454C248.871 206.454 245.975 206.022 243.116 205.163C240.267 204.288 237.688 202.934 235.386 201.1C233.079 199.267 231.23 196.965 229.845 194.184C228.47 191.392 227.782 188.074 227.782 184.225C227.782 180.574 228.438 177.262 229.761 174.288C231.079 171.319 232.876 168.767 235.157 166.642C237.433 164.507 240.011 162.85 242.886 161.684C245.772 160.517 248.746 159.934 251.803 159.934C254.621 159.934 257.428 160.361 260.22 161.204C263.011 162.038 265.584 163.371 267.949 165.204C270.324 167.027 272.209 169.345 273.616 172.163C275.032 174.986 275.741 178.371 275.741 182.329C275.741 186.178 275.001 189.6 273.532 192.6C272.074 195.6 270.157 198.121 267.782 200.163C265.418 202.204 262.824 203.767 259.991 204.85C257.168 205.918 254.438 206.454 251.803 206.454ZM236.782 177.475C236.782 180.116 237.168 182.996 237.949 186.121C238.725 189.246 239.876 192.204 241.407 194.996C242.949 197.777 244.855 200.053 247.136 201.829C249.412 203.595 252.022 204.475 254.97 204.475C257.897 204.475 260.22 203.725 261.928 202.225C263.636 200.725 264.85 198.809 265.574 196.475C266.293 194.132 266.657 191.699 266.657 189.184C266.657 186.298 266.188 183.22 265.261 179.954C264.329 176.694 263.011 173.621 261.303 170.746C259.595 167.861 257.537 165.559 255.136 163.85C252.73 162.142 250.095 161.434 247.22 161.725C244.636 161.965 242.579 162.85 241.053 164.392C239.522 165.923 238.428 167.84 237.761 170.142C237.105 172.449 236.782 174.892 236.782 177.475Z" fill="black"/>
<path d="M281.962 205.559V204.309C283.462 203.824 284.431 202.819 284.879 201.288C285.337 199.762 285.567 197.371 285.567 194.121V173.434C285.567 170.798 285.244 169.059 284.608 168.225C283.983 167.382 283.098 166.715 281.962 166.225V164.975L293.837 159.746L294.733 160.475V171.35C296.119 168.116 298.317 165.475 301.317 163.434C302.994 162.241 304.718 161.361 306.483 160.788C308.259 160.22 310.223 159.934 312.379 159.934C313.931 159.934 315.28 160.142 316.421 160.559C317.572 160.975 318.15 161.663 318.15 162.621C318.15 163.288 317.921 164.09 317.462 165.017C317.014 165.949 316.343 166.762 315.442 167.454C314.535 168.137 313.4 168.475 312.025 168.475C310.759 168.475 309.212 168.257 307.379 167.809C305.556 167.35 303.202 166.678 300.317 165.788C299.176 166.746 297.988 168.158 296.754 170.017C295.53 171.882 294.858 173.949 294.733 176.225V194.121C294.733 197.371 294.952 199.762 295.4 201.288C295.858 202.819 296.837 203.824 298.337 204.309V205.559H281.962Z" fill="black"/>
<path d="M344.157 206.454C341.626 206.454 339.121 206.007 336.636 205.121C334.147 204.22 331.85 202.866 329.74 201.059C327.641 199.257 325.959 197.007 324.699 194.309C323.449 191.616 322.824 188.434 322.824 184.767C322.824 180.934 323.496 177.491 324.845 174.434C326.188 171.366 328.001 168.757 330.282 166.6C332.574 164.434 335.105 162.783 337.886 161.642C340.678 160.507 343.542 159.934 346.49 159.934C350.574 159.934 353.99 160.746 356.74 162.371C359.501 163.986 361.584 166.017 362.99 168.475C364.407 170.934 365.115 173.486 365.115 176.121H331.011C330.954 176.611 330.907 177.095 330.865 177.579C330.834 178.053 330.824 178.533 330.824 179.017C330.824 182.908 331.584 186.387 333.115 189.454C334.657 192.512 336.813 194.892 339.595 196.6C342.386 198.309 345.678 199.163 349.47 199.163C352.829 199.163 355.792 198.507 358.365 197.184C360.949 195.866 363.167 194.158 365.032 192.059L365.845 192.954C364.47 195.053 362.761 197.137 360.72 199.204C358.678 201.277 356.272 203.007 353.511 204.392C350.746 205.767 347.626 206.454 344.157 206.454ZM331.095 174.871H356.032C355.667 172.413 354.907 170.178 353.74 168.163C352.574 166.152 351.126 164.548 349.407 163.35C347.699 162.158 345.792 161.559 343.699 161.559C341.183 161.491 339.053 162.09 337.303 163.35C335.563 164.616 334.183 166.267 333.157 168.309C332.141 170.34 331.454 172.527 331.095 174.871Z" fill="black"/>
<path d="M385.01 206.454C381.952 206.454 379.624 205.408 378.031 203.309C376.447 201.215 375.656 197.736 375.656 192.871V161.996H369.885V160.559L383.385 148.684H384.843V160.559H398.781L398.426 161.996H384.843V192.954C384.843 195.72 385.348 197.746 386.364 199.038C387.374 200.329 388.874 200.975 390.864 200.975C391.874 200.975 393.083 200.694 394.489 200.121C395.906 199.553 397.364 198.34 398.864 196.475L399.781 197.371C397.374 200.137 394.989 202.345 392.614 203.996C390.249 205.632 387.718 206.454 385.01 206.454Z" fill="black"/>
<path d="M417.05 206.454C413.993 206.454 411.665 205.408 410.071 203.309C408.488 201.215 407.696 197.736 407.696 192.871V161.996H401.925V160.559L415.425 148.684H416.884V160.559H430.821L430.467 161.996H416.884V192.954C416.884 195.72 417.389 197.746 418.404 199.038C419.415 200.329 420.915 200.975 422.904 200.975C423.915 200.975 425.123 200.694 426.529 200.121C427.946 199.553 429.404 198.34 430.904 196.475L431.821 197.371C429.415 200.137 427.029 202.345 424.654 203.996C422.29 205.632 419.759 206.454 417.05 206.454Z" fill="black"/>
<path d="M456.299 206.454C453.768 206.454 451.263 206.007 448.778 205.121C446.289 204.22 443.992 202.866 441.882 201.059C439.784 199.257 438.101 197.007 436.841 194.309C435.591 191.616 434.966 188.434 434.966 184.767C434.966 180.934 435.638 177.491 436.987 174.434C438.33 171.366 440.143 168.757 442.424 166.6C444.716 164.434 447.247 162.783 450.028 161.642C452.82 160.507 455.685 159.934 458.632 159.934C462.716 159.934 466.132 160.746 468.882 162.371C471.643 163.986 473.726 166.017 475.132 168.475C476.549 170.934 477.257 173.486 477.257 176.121H443.153C443.096 176.611 443.049 177.095 443.007 177.579C442.976 178.053 442.966 178.533 442.966 179.017C442.966 182.908 443.726 186.387 445.257 189.454C446.799 192.512 448.955 194.892 451.737 196.6C454.528 198.309 457.82 199.163 461.612 199.163C464.971 199.163 467.935 198.507 470.507 197.184C473.091 195.866 475.31 194.158 477.174 192.059L477.987 192.954C476.612 195.053 474.903 197.137 472.862 199.204C470.82 201.277 468.414 203.007 465.653 204.392C462.888 205.767 459.768 206.454 456.299 206.454ZM443.237 174.871H468.174C467.81 172.413 467.049 170.178 465.882 168.163C464.716 166.152 463.268 164.548 461.549 163.35C459.841 162.158 457.935 161.559 455.841 161.559C453.325 161.491 451.195 162.09 449.445 163.35C447.705 164.616 446.325 166.267 445.299 168.309C444.284 170.34 443.596 172.527 443.237 174.871Z" fill="black"/>
</svg>
